<svg xmlns="http://www.w3.org/2000/svg" viewBox="0 0 11 11">
  <path d="M9.864 8.64712L7.91659 6.69971C7.8287 6.61181 7.70955 6.56298 7.58454 6.56298H7.26616C7.80526 5.87348 8.12559 5.00623 8.12559 4.0628C8.12559 1.81849 6.3071 0 4.0628 0C1.81849 0 0 1.81849 0 4.0628C0 6.3071 1.81849 8.12559 4.0628 8.12559C5.00623 8.12559 5.87348 7.80526 6.56298 7.26616V7.58454C6.56298 7.70955 6.61181 7.8287 6.69971 7.91659L8.64712 9.864C8.83072 10.0476 9.12762 10.0476 9.30927 9.864L9.86205 9.31123C10.0457 9.12762 10.0457 8.83072 9.864 8.64712ZM4.0628 6.56298C2.68184 6.56298 1.56261 5.44571 1.56261 4.0628C1.56261 2.68184 2.67988 1.56261 4.0628 1.56261C5.44376 1.56261 6.56298 2.67988 6.56298 4.0628C6.56298 5.44376 5.44571 6.56298 4.0628 6.56298Z" fill="#EAEAEA"/>
</svg>
